<svg xmlns="http://www.w3.org/2000/svg" viewBox="0 0 100 100" width="32" height="32">
  <!-- Cake base -->
  <rect x="20" y="60" width="60" height="25" fill="#8B4513" rx="3"/>
  
  <!-- Cake layer 2 -->
  <rect x="25" y="45" width="50" height="20" fill="#D2691E" rx="3"/>
  
  <!-- Cake layer 1 -->
  <rect x="30" y="30" width="40" height="20" fill="#F4A460" rx="3"/>
  
  <!-- Frosting -->
  <ellipse cx="50" cy="30" rx="20" ry="3" fill="#FFB6C1"/>
  <ellipse cx="50" cy="45" rx="25" ry="3" fill="#FFB6C1"/>
  <ellipse cx="50" cy="60" rx="30" ry="3" fill="#FFB6C1"/>
  
  <!-- Candles -->
  <rect x="42" y="20" width="2" height="12" fill="#FFFF00"/>
  <rect x="50" y="18" width="2" height="14" fill="#FFFF00"/>
  <rect x="58" y="20" width="2" height="12" fill="#FFFF00"/>
  
  <!-- Flames -->
  <ellipse cx="43" cy="18" rx="1.5" ry="3" fill="#FF4500"/>
  <ellipse cx="51" cy="16" rx="1.5" ry="3" fill="#FF4500"/>
  <ellipse cx="59" cy="18" rx="1.5" ry="3" fill="#FF4500"/>
  
  <!-- Decorative cherries -->
  <circle cx="40" cy="35" r="2" fill="#DC143C"/>
  <circle cx="60" cy="37" r="2" fill="#DC143C"/>
  <circle cx="35" cy="50" r="2" fill="#DC143C"/>
  <circle cx="65" cy="52" r="2" fill="#DC143C"/>
</svg>